<?xml version="1.0" encoding="UTF-8" standalone="no"?> <!-- Created with Vectornator for iOS (http://vectornator.io/) --><!DOCTYPE svg PUBLIC "-//W3C//DTD SVG 1.1//EN" "http://www.w3.org/Graphics/SVG/1.1/DTD/svg11.dtd">
<svg style="fill-rule:evenodd;clip-rule:evenodd;stroke-linecap:round;stroke-linejoin:round;" xmlns:vectornator="http://vectornator.io" xmlns:xlink="http://www.w3.org/1999/xlink" xmlns="http://www.w3.org/2000/svg" xml:space="preserve" version="1.1" viewBox="0 0 512 512">
<metadata>
<vectornator:setting key="DynamicGuides" value="1"/>
<vectornator:setting key="Units" value="Points"/>
<vectornator:setting key="RulersVisible" value="1"/>
<vectornator:setting key="SnapToGuides" value="1"/>
<vectornator:setting key="GridSpacing" value="36"/>
</metadata>
<defs/>
<g id="Layer 1" vectornator:layerName="Layer 1">
<path d="M126.419+133.158L405.831+133.158C408.327+133.158+410.35+135.181+410.35+137.677L410.35+349.931C410.35+352.427+408.327+354.45+405.831+354.45L126.419+354.45C123.923+354.45+121.9+352.427+121.9+349.931L121.9+137.677C121.9+135.181+123.923+133.158+126.419+133.158Z" opacity="1" fill="#ed5e00"/>
</g>
<g id="Untitled" vectornator:layerName="Untitled">
<path d="M48+256C48+370.87+141.13+464+256+464C370.87+464+464+370.87+464+256C464+141.13+370.87+48+256+48C141.13+48+48+141.13+48+256ZM144+322.67C149.45+261.22+178.14+205.58+266.87+205.58L266.87+168.26C266.901+164.961+268.879+161.992+271.912+160.692C274.945+159.392+278.459+160.007+280.87+162.26L365.42+242C367.066+243.55+367.999+245.71+367.999+247.97C367.999+250.23+367.066+252.39+365.42+253.94L281+333.71C278.589+335.963+275.075+336.578+272.042+335.278C269.009+333.978+267.031+331.009+267+327.71L267+290.42C209.93+290.42+182.49+303.89+158.42+329.1C152.93+334.75+143.35+330.42+144+322.67Z" opacity="1" fill="#000000"/>
</g>
</svg>
